PathFileType	4	(X/Y/Z)	Patient4_TMGait_0pt4_03_right_16.trc.trc
DataRate	CameraRate	NumFrames	NumMarkers	Units	OrigDataRate	OrigDataStartFrame	OrigNumFrames
72.916666666667	72.916666666667	4	33	mm	72.916666666667	53	       141
Frame#	Time	Sacral			L.Shoulder			Chest			R.Shoulder			Neck			R.ASIS			L.ASIS			R.Thigh.Superior			R.Thigh.Lateral			R.Thigh.Inferior			R.Patella			L.Thigh.Superior			L.Thigh.Lateral			L.Thigh.Inferior			L.Patella			L.Shank.Superior			L.Shank.Lateral			L.Shank.Inferior			R.Shank.Superior			R.Shank.Lateral			R.Shank.Inferior			R.Heel			R.Midfoot.Superior			R.Midfoot.Lateral			R.Toe			L.Heel			L.Midfoot.Lateral			L.Midfoot.Superior			L.Toe			L.Elbow			L.Wrist			R.Elbow			R.Wrist			
		X1	Y1	Z1	X2	Y2	Z2	X3	Y3	Z3	X4	Y4	Z4	X5	Y5	Z5	X6	Y6	Z6	X7	Y7	Z7	X8	Y8	Z8	X9	Y9	Z9	X10	Y10	Z10	X11	Y11	Z11	X12	Y12	Z12	X13	Y13	Z13	X14	Y14	Z14	X15	Y15	Z15	X16	Y16	Z16	X17	Y17	Z17	X18	Y18	Z18	X19	Y19	Z19	X20	Y20	Z20	X21	Y21	Z21	X22	Y22	Z22	X23	Y23	Z23	X24	Y24	Z24	X25	Y25	Z25	X26	Y26	Z26	X27	Y27	Z27	X28	Y28	Z28	X29	Y29	Z29	X30	Y30	Z30	X31	Y31	Z31	X32	Y32	Z32	X33	Y33	Z33	

53	20.823142857143	849.370166333849	1009.654983551487	532.654980848195	1024.188829649644	1432.876069559294	338.491361992760	1139.659680946269	1363.452700460303	491.081602003807	1074.497836659005	1440.249295460564	671.229225930732	1022.088329702344	1497.058469672191	494.761652516380	1084.839889796439	940.672332521385	634.597994087169	1053.332631294395	967.411044390827	362.894598153041	1116.597752393889	737.670958197214	601.849472000090	1032.719111548483	630.523044269966	662.540545915701	1106.303827991728	576.646194507729	580.326690632733	1103.429920684534	487.989000160699	585.626388006122	1139.180258710742	787.265691175321	386.659184373196	1096.723236839030	661.715034878995	304.180155202613	1202.445308203671	601.175327295901	362.662587840840	1219.932631793518	516.244236729471	351.399321156759	1164.674546058270	445.341818915028	340.054868703819	1033.091323894806	378.155453034350	293.360704403923	1051.451102968687	245.706411537956	338.542243821261	1069.076098534468	400.902806639281	591.588188701635	992.054178499846	300.576021496229	650.562433296212	1027.981499659935	204.279299138418	586.162458055808	887.368692173791	43.985310263535	550.598159784271	1056.728590968374	96.350422498152	594.794254575391	967.282131361402	37.314849058139	629.743775722972	1176.046083933211	41.644606523264	628.100477090522	883.860935027681	139.472197330745	379.835353795405	943.952114556433	111.639874760308	293.867132367982	1045.720627851729	141.371857491376	311.696486319121	1143.071850546522	51.130547723322	271.261789812098	949.438112814327	1088.483051464141	223.469371512797	1004.606132811789	835.490711514201	179.867943655059	1112.700101574493	1109.609721538848	822.496347442319	1336.296984112676	996.318096732135	768.679633066802	
54	20.836857142857	848.198226617287	1010.647721250887	534.866019639797	1023.087658712462	1433.039875768183	339.571786803940	1139.749698957164	1363.110109804382	490.989157291162	1076.733562066541	1440.352788911746	671.727376845776	1022.616087929461	1497.223907575943	495.606982943333	1084.046978445476	940.360262766455	634.706635459505	1050.582374635446	967.929792971392	363.303454278667	1113.570688483895	737.009755330449	601.610597039048	1029.279404219213	630.505921580134	663.015594620049	1101.708180082360	576.059092119976	580.298017158157	1098.135678111013	487.701435429828	585.650180751950	1136.566472764152	788.923213968030	387.176863679472	1095.486992627068	663.451825374020	304.076497436195	1201.048858002788	603.552129001782	363.416132223405	1220.240795289455	520.011895828657	351.371055670251	1168.300897904304	448.202085165049	339.448900879926	1040.666849144223	373.882638245608	293.001816413962	1067.210904041161	242.185823582340	337.120120976308	1063.765497621898	400.743815450657	591.806005857626	986.771611692081	300.480153264803	650.909405864995	1022.499256765039	204.199954094194	586.328900021800	881.831618350972	43.949327214149	550.692231418429	1051.139433517988	96.270681082567	594.803364431585	961.736851960617	37.255108554612	629.813285515938	1170.493878993322	41.640856905293	628.140344528236	906.712609805978	125.355568697053	379.021595904349	967.671598926505	102.193118914870	292.235248593829	1067.599840663456	137.955664434688	309.501382847946	1170.096356393066	54.499697247078	267.375206850855	943.916573762194	1089.343544505916	225.406998715801	997.176274077882	836.104579103572	180.925515141697	1119.750954051609	1110.332621805605	822.384041485140	1346.443622350899	1005.987179487315	764.980513271852	
55	20.850571428571	847.053489146247	1011.544520425490	536.938475002444	1022.053715484874	1433.088728590371	340.449897649962	1139.837129162832	1362.644155991576	490.727622202994	1078.924810867883	1440.328016880259	672.025420513875	1023.143052851638	1497.286155302759	496.249795053850	1083.203899973145	939.998611787755	634.690109279230	1047.850224979440	968.264734851795	363.574867017167	1110.526767876817	736.325423360043	601.353147652110	1025.820536599872	630.468608058273	663.479536773035	1097.078662628381	575.453841436949	580.276887542207	1092.781316559821	487.414801826233	585.683233488311	1133.635523803282	790.111592689250	387.570242056844	1093.764255322660	664.800547105956	303.816456198097	1198.991598581798	605.382902323231	364.109310312646	1219.836185481259	523.406808832331	351.348320118536	1171.343653398576	450.850314322327	338.890358504246	1048.338425131875	369.476009467702	292.221049099513	1082.892602684753	239.034728531246	335.629392157035	1058.434567841422	400.580843616861	592.034609293144	981.480464081691	300.363101340554	651.271203938534	1017.000341669560	204.111699781850	586.501002464155	876.293718555045	43.901932452720	550.794113008112	1045.549904540257	96.183733292557	594.809059474494	956.190641370026	37.187379861888	629.876284397188	1164.942102501252	41.640644596217	628.177211445545	929.956993933770	112.065039037924	377.593485954459	991.902224090678	93.453873392800	290.357599921026	1089.584761939748	135.126413670031	307.439858579796	1196.974188137025	58.556726474055	264.318062892309	938.779648421254	1090.028373444349	227.263269264492	990.318575461794	836.560673358764	182.041537267895	1126.447133352244	1110.806542956633	821.794628735092	1355.769547731660	1015.254660376279	760.945983876401	
56	20.864285714286	845.942787716567	1012.341999173474	538.848360671632	1021.095451784613	1433.033816218742	341.115942294330	1139.914403630013	1362.072070744791	490.304943668552	1081.032295796425	1440.184263892037	672.123745668962	1023.663303777690	1497.255349352845	496.686514362424	1082.318036555471	939.600602100356	634.565198590604	1045.168137279892	968.430156466682	363.711034352067	1107.494810809676	735.623268331489	601.088781910544	1022.353874084484	630.411223884590	663.922891103597	1092.440839037414	574.832002727770	580.265834094527	1087.396737483323	487.131397361206	585.722905269223	1130.449271264601	790.858015875763	387.852545374473	1091.607443316401	665.774554058785	303.416291140713	1196.375539008907	606.692392712644	364.693456196649	1218.798842654794	526.425545607890	351.352940720856	1173.826990105879	453.293462388842	338.434050778188	1056.084892685572	365.118468862334	291.009709085394	1098.248668981786	236.421087771428	334.146482157686	1053.106009114179	400.417097465640	592.265321561657	976.192090049180	300.230432076420	651.638515873305	1011.494791788941	204.015887010522	586.671215745946	870.754000434436	43.845866357718	550.899047070886	1039.961750735982	96.093690390141	594.813799930739	950.643254114781	37.114148296212	629.929070363758	1159.390478668700	41.646895189402	628.210992456366	953.143348485865	100.006914287017	375.537884616918	1016.276509040241	85.703038158231	288.301093065082	1111.338857961504	133.039513315295	305.637390030935	1223.302748694566	63.290513814479	262.382766576906	934.077918366896	1090.539931635048	229.006218216739	984.046746494414	836.845643870481	183.203399945445	1132.795354246045	1111.024286756226	820.720388263990	1364.289956180764	1024.010864681075	756.604116075029	
